<?xml version="1.0" standalone="no"?><!DOCTYPE svg PUBLIC "-//W3C//DTD SVG 1.1//EN" "http://www.w3.org/Graphics/SVG/1.1/DTD/svg11.dtd"><svg t="1650260902289" class="icon" viewBox="0 0 1024 1024" version="1.1" xmlns="http://www.w3.org/2000/svg" p-id="5714" xmlns:xlink="http://www.w3.org/1999/xlink" width="16" height="16"><defs><style type="text/css"></style></defs><path d="M690.194 479.706H496.998v0.004c-9.275 0-16.798 7.518-16.8 16.795l-0.016 42h-0.004c-0.002 9.277 7.518 16.799 16.796 16.803h0.004l117.618-0.004c9.277 0 16.8 7.522 16.8 16.8v8.4c0 27.832-22.564 50.398-50.399 50.398h-159.61c-9.277 0-16.797-7.522-16.797-16.8l-0.004-159.597h-0.002c0-27.834 22.562-50.398 50.397-50.4h0.002l235.164 0.002v-0.011c9.275 0 16.794-7.516 16.8-16.789l0.037-41.999h0.011c0.006-9.277-7.512-16.804-16.79-16.81h-0.01l-235.195 0.01c-69.586 0-125.998 56.412-125.998 125.997L329 689.701c0 9.277 7.522 16.8 16.8 16.8h247.796c62.628 0 113.398-50.768 113.398-113.397v-96.599c0-9.277-7.522-16.799-16.8-16.799z" p-id="5715" fill="#c71d23"></path></svg>